<svg width="91" height="44" viewBox="0 0 91 44" fill="none" xmlns="http://www.w3.org/2000/svg">
<g clip-path="url(#clip0_0_119)">
<path d="M20.2532 43.82L23.075 36.7568H23.9895L26.7828 43.82H25.354L24.7825 42.365H22.925L22.5464 41.362H24.4181L23.7037 39.4197L23.5037 38.7769L23.3037 39.4197L21.6105 43.82H20.2532Z" fill="#BD8B13"/>
<path d="M29.0688 43.82V36.7568H30.4976V43.82H29.0688Z" fill="#BD8B13"/>
<path d="M37.2987 43.82L35.6699 41.5174H34.884V43.82H33.5052V36.7568H35.7842C36.4704 36.7113 37.1501 36.9119 37.6988 37.3219C37.9314 37.541 38.1113 37.809 38.2251 38.1061C38.3388 38.4032 38.3836 38.7217 38.356 39.0382C38.3622 39.5344 38.2313 40.0228 37.9774 40.4509C37.7332 40.8498 37.3647 41.1596 36.9272 41.3338L38.8918 43.8271L37.2987 43.82ZM34.884 40.5851H35.777C36.5629 40.5851 36.9486 40.1189 36.9486 39.1724C36.9681 38.8456 36.8749 38.522 36.6843 38.2542C36.5693 38.1333 36.4276 38.0404 36.2701 37.9828C36.1127 37.9252 35.9439 37.9045 35.777 37.9223H34.884V40.5851Z" fill="#BD8B13"/>
<path d="M42.5067 43.82L40.3635 36.7568H41.7923L43.1425 41.7858H43.1997L44.457 37.9011L44.0712 36.7922H45.4286L47.1003 41.7858H47.1432L48.4577 36.778H49.7864L47.6432 43.7988H46.5002L45.0714 39.4408L43.6426 43.7988L42.5067 43.82Z" fill="#BD8B13"/>
<path d="M50.9081 43.82L53.7657 36.7568H54.6444L57.4377 43.82H56.0089L55.4374 42.365H53.5728L53.1799 41.362H55.0587L54.3443 39.4197L54.1514 38.7769L53.9443 39.4197L52.2797 43.8129L50.9081 43.82Z" fill="#BD8B13"/>
<path d="M60.5596 43.8201V40.9383L58.2378 36.7852H59.788L61.3311 39.7446L62.9242 36.7852H64.2959L61.9312 40.9383V43.8201H60.5596Z" fill="#BD8B13"/>
<path d="M68.0035 43.9894C67.3745 44.0139 66.7524 43.8515 66.2175 43.5232V42.1106C66.7194 42.5726 67.3821 42.8256 68.0678 42.8169C68.9251 42.8169 69.3823 42.492 69.3823 41.8351C69.3864 41.7236 69.3655 41.6125 69.321 41.5099C69.2765 41.4074 69.2097 41.3158 69.1251 41.2418C68.8543 41.06 68.5475 40.9372 68.225 40.8816L67.9678 40.8251C66.7676 40.5355 66.1675 39.8645 66.1675 38.805C66.1506 38.5053 66.2007 38.2056 66.3143 37.9273C66.4279 37.6489 66.6022 37.3988 66.8248 37.1946C67.3545 36.7789 68.0216 36.5725 68.6965 36.6154C69.3403 36.5795 69.9794 36.7424 70.5254 37.0816V38.4942C70.2877 38.2892 70.0173 38.1246 69.7252 38.0069C69.3841 37.8633 69.0173 37.7888 68.6465 37.7879C68.3393 37.7663 68.0328 37.8377 67.7678 37.9927C67.6052 38.1545 67.5104 38.371 67.5025 38.5989C67.4945 38.8268 67.574 39.0493 67.7249 39.2217C67.9867 39.3995 68.2838 39.5199 68.5965 39.5749L68.8537 39.6314C69.3873 39.7303 69.8822 39.975 70.2825 40.3377C70.4415 40.5136 70.5633 40.7193 70.6406 40.9425C70.7179 41.1657 70.7491 41.402 70.7325 41.6373C70.7499 41.9512 70.7011 42.2653 70.5892 42.5596C70.4773 42.8538 70.3047 43.1218 70.0824 43.3466C69.5025 43.8238 68.7551 44.0549 68.0035 43.9894Z" fill="#BD8B13"/>
<path d="M48.5291 2.84625L49.7435 1.64551L50.8508 2.7403L50.9651 2.83918L49.7435 4.04698L48.5291 2.84625Z" fill="#BD8B13"/>
<path d="M50.9723 2.84625L52.1868 1.64551L53.2941 2.7403L53.4012 2.83918L52.1868 4.04698L50.9723 2.84625Z" fill="#BD8B13"/>
<path d="M49.3149 14.8254C49.1172 14.8253 48.922 14.7819 48.7434 14.6982C48.5022 14.4954 48.312 14.2398 48.1881 13.9517C48.0641 13.6636 48.0096 13.3509 48.029 13.0384V12.8265H37.7131V3.64438C37.7131 3.2559 37.463 3.14996 37.2416 3.03694C37.0201 2.92393 36.8701 2.84624 36.8344 2.57784V2.44364C37.7478 1.77002 38.5732 0.987111 39.2919 0.112793V11.3008H48.0647V10.8559C48.0647 10.4745 48.0647 9.67632 46.1001 9.6622H43.0139C42.4567 9.61275 42.1566 9.01238 42.1566 8.46852C42.1464 8.30819 42.177 8.14789 42.2457 8.00229C42.3143 7.85668 42.4188 7.73043 42.5495 7.63507L42.6781 7.54324L42.7567 7.68451C42.9353 8.00941 43.6568 8.15774 45.0285 8.15774H47.1717C49.4792 8.15774 49.7507 10.1496 49.7864 10.983V11.322H52.0082V7.88228C52.0082 7.88228 52.0082 7.64213 51.5652 7.38079C51.4642 7.32324 51.3768 7.2449 51.309 7.15107C51.2412 7.05724 51.1946 6.95011 51.1723 6.83693C52.1462 6.21948 52.955 5.37868 53.5298 4.38601V12.8265H49.6721V12.9536C49.6166 13.4579 49.7599 13.9638 50.0721 14.3663L50.2436 14.4934L50.0293 14.6417C49.8123 14.7657 49.5654 14.8291 49.3149 14.8254Z" fill="#BD8B13"/>
<path d="M30.8905 14.1265V12.8269H25.604V11.273H32.3551V13.3425C32.3551 13.3425 32.2836 13.9923 33.5624 13.9923C33.6647 13.9896 33.7654 13.9669 33.8588 13.9257C33.9522 13.8844 34.0365 13.8254 34.1068 13.7519C34.1772 13.6784 34.2321 13.592 34.2687 13.4975C34.3052 13.403 34.3225 13.3023 34.3197 13.2012V9.50719C34.3286 9.43847 34.3237 9.36867 34.3051 9.30185C34.2866 9.23504 34.2548 9.17254 34.2116 9.11798C34.1684 9.06343 34.1146 9.01792 34.0534 8.98409C33.9923 8.95027 33.9249 8.9288 33.8553 8.92094H25.604V4.35107C26.1405 5.00891 26.7767 5.58072 27.49 6.04623C27.64 6.13806 27.5615 6.39233 27.09 6.69605C26.9899 6.75255 26.8756 6.80199 26.8756 6.93619V7.50831H34.9269C35.8628 7.50831 35.9485 8.49715 35.9485 8.80087V14.0841C35.9485 14.0841 35.877 15.4968 33.5695 15.4968C30.7191 15.4685 30.8905 14.1265 30.8905 14.1265Z" fill="#BD8B13"/>
<path d="M62.8671 12.8265V0.0209961L63.1385 0.458912C63.4329 0.857303 63.7787 1.21587 64.1673 1.52545C64.4382 1.77381 64.738 1.98956 65.0603 2.1682C65.2103 2.2247 65.3175 2.27415 65.3175 2.42247V2.54961C65.3175 2.82507 65.0888 2.91689 64.9031 3.01578C64.7743 3.05858 64.6624 3.14019 64.5829 3.24914C64.5035 3.35809 64.4606 3.4889 64.4602 3.62321V12.8265H62.8671Z" fill="#BD8B13"/>
<path d="M55.2659 14.5077L56.9304 12.8903L54.9658 10.9832V0.0282527C55.4522 0.9563 56.12 1.77974 56.9304 2.45092V2.57806C56.9192 2.67392 56.8839 2.76548 56.8277 2.84443C56.7716 2.92337 56.6964 2.9872 56.6089 3.0301C56.4883 3.0886 56.3887 3.18226 56.3236 3.29844C56.2584 3.41463 56.2309 3.54776 56.2446 3.67991V10.1498L57.8806 11.8308L59.5165 10.1498V3.64459C59.5308 3.51332 59.5034 3.38089 59.4382 3.26571C59.3729 3.15053 59.2729 3.0583 59.1522 3.00185C59.0649 2.96064 58.9896 2.89819 58.9334 2.82037C58.8772 2.74254 58.8418 2.65187 58.8307 2.55687V2.47211C59.7014 1.82824 60.3942 0.9781 60.8453 0V10.8066L58.8807 12.862L60.5167 14.4795L57.9306 17.0646L55.2659 14.5077ZM57.8806 15.5955L58.9736 14.5077L57.8806 13.42L56.7875 14.5077L57.8806 15.5955Z" fill="#BD8B13"/>
<path d="M51.1295 29.2487L53.9085 26.2822V20.4621C53.9158 20.4257 53.9361 20.3932 53.9656 20.3703L54.3657 20.1725V19.8335H50.6365V20.1655L51.0223 20.4056C51.1366 20.4762 51.1366 20.5186 51.1366 20.5539V23.9019H43.6712L41.9923 26.0208V20.4692L42.0781 20.4127L42.4281 20.2008H42.471V19.89H38.7561V20.222L39.1276 20.4621C39.1847 20.4621 39.2062 20.5116 39.2205 20.5116V30.6119C39.1996 30.6388 39.1727 30.6606 39.1419 30.6755L38.7775 30.9227V31.2476H42.5067V30.9156L42.1138 30.6755L42.0209 30.626V26.035L42.421 26.148L42.9353 25.8584C43.0079 25.8095 43.0873 25.7715 43.1711 25.7454C43.24 25.7383 43.3094 25.7383 43.3783 25.7454H51.1581L51.1295 29.2487Z" fill="#BD8B13"/>
<path d="M90.7429 24.3045C90.2305 22.8522 89.1639 21.6557 87.771 20.9707C86.3422 20.2078 84.4205 19.8335 81.7629 19.8335H71.6256V20.1584C71.6256 20.1584 72.0542 20.4409 72.0685 20.4409V21.6275H81.7486C83.219 21.5314 84.6908 21.7934 86.035 22.3904C86.6372 22.6755 87.1465 23.1218 87.5051 23.6786C87.8637 24.2354 88.0573 24.8805 88.0639 25.5405C88.0646 26.1838 87.8787 26.8138 87.5281 27.3558C87.1141 27.9368 86.5589 28.4056 85.9136 28.719C84.5704 29.2655 83.1202 29.5069 81.67 29.4253H76.6193V22.4469H73.8617V30.6048L73.7831 30.6825L73.4473 30.8944V31.1911H81.7201C82.9664 31.215 84.2124 31.1251 85.4421 30.9227C86.5747 30.701 87.6523 30.2619 88.614 29.6301C89.4491 29.1128 90.1258 28.3802 90.5714 27.5112C90.8583 26.9257 91.0049 26.2829 91.0001 25.6324C90.9763 25.1802 90.8897 24.7334 90.7429 24.3045Z" fill="#BD8B13"/>
<path d="M54.3585 30.8165H54.2085L61.1524 23.6969L59.545 21.9946L50.5508 31.1909H54.6943V30.7883H54.5514C54.4884 30.8048 54.4237 30.8143 54.3585 30.8165Z" fill="#BD8B13"/>
<path d="M60.2952 21.493L62.0669 23.3577L63.9029 25.18H60.8025L59.0736 26.9529L59.4451 27.2001L59.8452 26.9882H65.5603L69.2181 30.8729C69.2181 30.8729 69.1681 30.9365 68.8466 30.9365H68.7037V31.332H72.8401L61.8883 19.812L60.2952 21.493Z" fill="#BD8B13"/>
<path d="M33.7125 20.1793L34.084 20.4195C34.1697 20.476 34.2126 20.5254 34.2126 20.5749V30.5975L34.1197 30.6752L33.734 30.9153V31.2473H37.4345V30.9224L37.0916 30.6823C37.0416 30.6823 37.013 30.6328 37.0059 30.6328V20.4619L37.0916 20.3842L37.4274 20.1581V19.8262H33.7125V20.1793Z" fill="#BD8B13"/>
<path d="M18.2244 29.0722L17.7386 29.3476L17.5243 29.4607H9.25153C7.78733 29.5443 6.32275 29.303 4.96514 28.7543C4.3285 28.4936 3.78473 28.0514 3.40307 27.4842C3.0214 26.9169 2.81911 26.2502 2.82195 25.5689C2.82304 24.9304 3.01437 24.3064 3.37203 23.7748C3.74011 23.2417 4.21568 22.7895 4.76891 22.4468C5.32213 22.104 5.94106 21.878 6.58683 21.783C6.9329 21.7153 7.28428 21.6775 7.63699 21.67H11.9234C12.1734 21.67 12.1377 21.7265 12.1448 21.7477L12.0948 22.0443H12.452L14.2523 19.8901H9.1658C8.25468 19.8747 7.34343 19.9124 6.4368 20.0031C6.11016 20.0394 5.7858 20.0937 5.46522 20.1655C4.61955 20.3611 3.80645 20.675 3.05056 21.0979C1.92376 21.69 1.01028 22.6129 0.43586 23.7395C0.142556 24.3606 -0.00634799 25.0388 7.73703e-05 25.7242C7.73703e-05 27.5607 1.00023 29.0298 2.97912 30.0893C3.9082 30.585 4.91543 30.9217 5.95816 31.0852C7.05884 31.2333 8.16947 31.2971 9.28011 31.2759H16.9242L18.7816 29.0722H18.2244Z" fill="#BD8B13"/>
<path d="M14.5595 26.3175L16.3455 24.1279H4.28643L3.0791 25.8937H13.938C14.1523 25.8937 14.2166 25.9714 14.2237 26.0067L14.1808 26.3246L14.5595 26.3175Z" fill="#BD8B13"/>
<path d="M13.8093 21.9313L14.1522 22.0514H14.2022L14.7309 21.79C14.8565 21.6969 15.0097 21.6472 15.1667 21.6488H21.832V30.6049L21.7463 30.6826L21.3677 30.9298V31.2476H25.0897V30.9227L24.7039 30.6896L24.611 30.6049C24.6039 30.5723 24.6039 30.5386 24.611 30.506V21.6558H30.4977C30.7334 21.6558 30.7548 21.7335 30.7548 21.7406V22.0514H31.0549L32.8837 19.8477H15.4953L13.8093 21.9313Z" fill="#BD8B13"/>
</g>
<defs>
<clipPath id="clip0_0_119">
<rect width="91" height="44" fill="white"/>
</clipPath>
</defs>
</svg>
